Genre:Comedy | Drama
Language:English
 
http://www.imdb.com/title/tt1604171/

Source:Bluray.x264.MHD Thanks!
Subtitles:Romana

Format : MPEG-4
Format profile : Base Media
Codec ID : isom
File size : 2.49 GiB
Duration : 1h 43mn
Overall bit rate : 3 429 Kbps

Video
ID : 1
Format : AVC
Format/Info : Advanced Video Codec
Format profile : High@L4.1
Format settings, CABAC : Yes
Format settings, ReFrames : 3 frames
Codec ID : avc1
Codec ID/Info : Advanced Video Coding
Duration : 1h 43mn
Bit rate mode : Variable
Bit rate : 3 000 Kbps
Maximum bit rate : 14.5 Mbps
Width : 1 280 pixels
Height : 720 pixels
Display aspect ratio : 16:9
Frame rate mode : Constant
Frame rate : 23.976 fps
Color space : YUV
Chroma subsampling : 4:2:0
Bit depth : 8 bits
Scan type : Progressive
Bits/(Pixel*Frame) : 0.136
Stream size : 2.16 GiB (87%)
Writing library : x264

Audio
ID : 2
Format : AAC
Format/Info : Advanced Audio Codec
Format version : Version 4
Format profile : LC
Format settings, SBR : No
Codec ID : 40
Duration : 1h 43mn
Bit rate mode : Variable
Bit rate : 442 Kbps
Maximum bit rate : 508 Kbps
Channel(s) : 6 channels
Channel positions : Front: L C R, Side: L R, LFE
Sampling rate : 48.0 KHz
Stream size : 328 MiB (13%)


Plot:
A group of teenagers get ready for their high school prom
 
http://www.pix2links.com/images/14592978510776045151.png
 
http://www.pix2links.com/images/43453861387695606247.png
 
http://www.pix2links.com/images/59775925096110384817.png
 
http://www.pix2links.com/images/98534533030652231518.png